<?xml version="1.0" encoding="UTF-8" standalone="no"?>
<svg
   xmlns:dc="http://purl.org/dc/elements/1.1/"
   xmlns:cc="http://creativecommons.org/ns#"
   xmlns:rdf="http://www.w3.org/1999/02/22-rdf-syntax-ns#"
   xmlns:svg="http://www.w3.org/2000/svg"
   xmlns="http://www.w3.org/2000/svg"
   xmlns:sodipodi="http://sodipodi.sourceforge.net/DTD/sodipodi-0.dtd"
   xmlns:inkscape="http://www.inkscape.org/namespaces/inkscape"
   class="instagram-logo"
   id="Layer_1"
   width="100"
   height="100"
   viewBox="0 0 551.034 551.034"
   style="enable-background:new 0 0 551.034 551.034;"
   xml:space="preserve"
   version="1.1"
   sodipodi:docname="logo-instagram.svg"
   inkscape:version="0.92.4 (5da689c313, 2019-01-14)"><metadata
   id="metadata3809"><rdf:RDF><cc:Work
       rdf:about=""><dc:format>image/svg+xml</dc:format><dc:type
         rdf:resource="http://purl.org/dc/dcmitype/StillImage" /></cc:Work></rdf:RDF></metadata><defs
   id="defs3807" /><sodipodi:namedview
   pagecolor="#ffffff"
   bordercolor="#666666"
   borderopacity="1"
   objecttolerance="10"
   gridtolerance="10"
   guidetolerance="10"
   inkscape:pageopacity="0"
   inkscape:pageshadow="2"
   inkscape:window-width="1920"
   inkscape:window-height="1001"
   id="namedview3805"
   showgrid="false"
   inkscape:zoom="2.36"
   inkscape:cx="50"
   inkscape:cy="50"
   inkscape:window-x="-9"
   inkscape:window-y="-9"
   inkscape:window-maximized="1"
   inkscape:current-layer="Layer_1" />
		<path
   class="logo"
   id="XMLID_17_"
   d="M386.878,0H164.156C73.64,0,0,73.64,0,164.156v222.722 c0,90.516,73.64,164.156,164.156,164.156h222.722c90.516,0,164.156-73.64,164.156-164.156V164.156 C551.033,73.64,477.393,0,386.878,0z M495.6,386.878c0,60.045-48.677,108.722-108.722,108.722H164.156 c-60.045,0-108.722-48.677-108.722-108.722V164.156c0-60.046,48.677-108.722,108.722-108.722h222.722 c60.045,0,108.722,48.676,108.722,108.722L495.6,386.878L495.6,386.878z"
   style="fill:#ffffff" />
	
		<path
   id="XMLID_81_"
   fill="#555"
   d="M275.517,133C196.933,133,133,196.933,133,275.516 s63.933,142.517,142.517,142.517S418.034,354.1,418.034,275.516S354.101,133,275.517,133z M275.517,362.6 c-48.095,0-87.083-38.988-87.083-87.083s38.989-87.083,87.083-87.083c48.095,0,87.083,38.988,87.083,87.083 C362.6,323.611,323.611,362.6,275.517,362.6z"
   style="fill:#ececec" />
	
		<circle
   id="XMLID_83_"
   fill="#555"
   cx="418.306"
   cy="134.072"
   r="34.149"
   style="fill:#e6e6e6" />

</svg>